<svg id="calculator-boost" xmlns="http://www.w3.org/2000/svg" xmlns:xlink="http://www.w3.org/1999/xlink" width="72" height="72" viewBox="0 0 72 72">
  <defs>
    <linearGradient id="linear-gradient" x1="0.26" x2="0.778" y2="1" gradientUnits="objectBoundingBox">
      <stop offset="0" stop-color="#9679bc"/>
      <stop offset="1" stop-color="#eb429f"/>
    </linearGradient>
  </defs>
  <g id="Group_14" data-name="Group 14">
    <rect id="Rectangle_8" data-name="Rectangle 8" width="72" height="72" fill="none"/>
  </g>
  <g id="Group_16" data-name="Group 16" transform="translate(9.225 5.612)">
    <g id="Group_15" data-name="Group 15">
      <path id="Path_22" data-name="Path 22" d="M14.156,41.5a9.1,9.1,0,0,0-6.442,2.674C4.127,47.764,2,62.776,2,62.776s15.012-2.127,18.6-5.713A9.111,9.111,0,0,0,14.156,41.5Zm2.158,11.274c-.851.851-6.594,2.31-6.594,2.31s1.428-5.713,2.31-6.594a2.818,2.818,0,0,1,2.127-.912,3.051,3.051,0,0,1,2.158,5.2ZM48.86,37.4h0C68.187,18.074,61.745,3.032,61.745,3.032S46.7-3.411,27.375,15.916L19.808,14.4a6.169,6.169,0,0,0-5.5,1.671L2,28.406l15.194,6.5L29.867,47.582l6.5,15.194L48.677,50.469a6.119,6.119,0,0,0,1.671-5.5ZM18.44,28.832l-5.8-2.492,5.987-5.987L23,21.235A76.081,76.081,0,0,0,18.44,28.832Zm20,23.308-2.492-5.8a72.46,72.46,0,0,0,7.567-4.558l.881,4.376Zm6.108-19.023c-4.011,4.011-10.271,7.293-12.277,8.3l-8.9-8.9c.972-1.975,4.254-8.235,8.3-12.277C45.882,6.01,56.67,8.107,56.67,8.107S58.766,18.895,44.544,33.117Zm-3.039-3.768a6.078,6.078,0,1,0-6.078-6.078A6.1,6.1,0,0,0,41.506,29.348Z" transform="translate(-2 -2.001)" fill="url(#linear-gradient)"/>
    </g>
  </g>
</svg>
