<svg xmlns="http://www.w3.org/2000/svg" xmlns:xlink="http://www.w3.org/1999/xlink" width="75" height="70" viewBox="0 0 75 70">
  <defs>
    <linearGradient id="linear-gradient" x1="0.151" x2="0.852" y2="1" gradientUnits="objectBoundingBox">
      <stop offset="0" stop-color="#9679bc"/>
      <stop offset="1" stop-color="#eb429f"/>
    </linearGradient>
  </defs>
  <g id="dashboard-market" transform="translate(-0.376 0.186)">
    <g id="Group_29" data-name="Group 29" transform="translate(0 0)">
      <rect id="Rectangle_18" data-name="Rectangle 18" width="75" height="70" transform="translate(0.376 -0.186)" fill="none"/>
    </g>
    <g id="Group_30" data-name="Group 30" transform="translate(4.274 3.991)">
      <path id="Path_25" data-name="Path 25" d="M36.622,29.927c-5.333-1.69-7.909-2.749-7.909-5.442,0-2.921,3.326-3.981,5.423-3.981a5.748,5.748,0,0,1,5.692,3.838l4.734-1.919a10.021,10.021,0,0,0-7.61-6.415V12.456H30.96v3.609c-7.43,1.6-7.46,8.191-7.46,8.478,0,6.5,6.741,8.334,10.037,9.48,4.734,1.6,6.831,3.065,6.831,5.814,0,3.236-3.146,4.611-5.932,4.611-5.453,0-7.011-5.356-7.19-5.986l-4.973,1.919a12.1,12.1,0,0,0,8.688,8.478v3.695h5.992V49c1.2-.258,8.688-1.69,8.688-9.222C45.64,35.8,43.813,32.3,36.622,29.927ZM6.992,58.281H1V41.1H18.976v5.728h-7.43a27.257,27.257,0,0,0,22.41,11.456c14.89,0,26.964-11.542,26.964-25.777h5.992c0,17.413-14.74,31.5-32.956,31.5A33.428,33.428,0,0,1,6.992,50.634ZM1,32.5C1,15.091,15.74,1,33.956,1A33.428,33.428,0,0,1,60.92,14.375V6.728h5.992V23.912H48.936V18.184h7.43A27.257,27.257,0,0,0,33.956,6.728C19.066,6.728,6.992,18.27,6.992,32.5Z" transform="translate(-1 -1)" fill="url(#linear-gradient)"/>
    </g>
  </g>
</svg>
