<svg xmlns="http://www.w3.org/2000/svg" xmlns:xlink="http://www.w3.org/1999/xlink" width="72" height="72" viewBox="0 0 72 72">
  <defs>
    <linearGradient id="linear-gradient" x1="0.149" y1="-0.147" x2="0.825" y2="1" gradientUnits="objectBoundingBox">
      <stop offset="0" stop-color="#9679bc"/>
      <stop offset="1" stop-color="#eb429f"/>
    </linearGradient>
  </defs>
  <g id="social-discord" transform="translate(-1157 -967)">
    <g id="Ellipse_7" data-name="Ellipse 7" transform="translate(1157 967)" fill="none" stroke="#7b2353" stroke-width="3">
      <circle cx="36" cy="36" r="36" stroke="none"/>
      <circle cx="36" cy="36" r="34.5" fill="none"/>
    </g>
    <path id="social-discord-2" data-name="social-discord" d="M61.61,34.7a.107.107,0,0,0-.055-.05A34.648,34.648,0,0,0,53.006,32a.13.13,0,0,0-.137.065A24.1,24.1,0,0,0,51.8,34.252a31.989,31.989,0,0,0-9.6,0,22.11,22.11,0,0,0-1.081-2.186A.135.135,0,0,0,40.984,32a34.549,34.549,0,0,0-8.549,2.651.122.122,0,0,0-.056.048,35.421,35.421,0,0,0-6.2,23.9.144.144,0,0,0,.055.1,34.833,34.833,0,0,0,10.488,5.3.136.136,0,0,0,.147-.048,24.871,24.871,0,0,0,2.146-3.489.133.133,0,0,0-.073-.185,22.941,22.941,0,0,1-3.276-1.561.135.135,0,0,1-.013-.223c.22-.165.44-.336.651-.51a.13.13,0,0,1,.136-.018,24.846,24.846,0,0,0,21.107,0,.129.129,0,0,1,.137.017c.21.173.431.347.652.511a.135.135,0,0,1-.012.223A21.529,21.529,0,0,1,55.04,60.27a.134.134,0,0,0-.071.187,27.934,27.934,0,0,0,2.144,3.487.133.133,0,0,0,.147.05,34.718,34.718,0,0,0,10.5-5.3.134.134,0,0,0,.055-.1A35.187,35.187,0,0,0,61.61,34.7ZM40.035,53.827a4.259,4.259,0,0,1,0-8.463,4.259,4.259,0,0,1,0,8.463Zm13.956,0a4.259,4.259,0,0,1,0-8.463,4.259,4.259,0,0,1,0,8.463Z" transform="translate(1146 955.001)" fill="url(#linear-gradient)"/>
  </g>
</svg>
